<?xml version="1.0" encoding="UTF-8" standalone="no"?>
<!-- Created with Inkscape (http://www.inkscape.org/) -->

<svg
   width="28"
   height="28"
   viewBox="0 0 28.000001 28.000001"
   version="1.1"
   id="svg5"
   xml:space="preserve"
   inkscape:version="1.2.2 (732a01da63, 2022-12-09)"
   sodipodi:docname="fb.svg"
   xmlns:inkscape="http://www.inkscape.org/namespaces/inkscape"
   xmlns:sodipodi="http://sodipodi.sourceforge.net/DTD/sodipodi-0.dtd"
   xmlns="http://www.w3.org/2000/svg"
   xmlns:svg="http://www.w3.org/2000/svg"><sodipodi:namedview
     id="namedview7"
     pagecolor="#ffffff"
     bordercolor="#000000"
     borderopacity="0.25"
     inkscape:showpageshadow="2"
     inkscape:pageopacity="0.0"
     inkscape:pagecheckerboard="0"
     inkscape:deskcolor="#d1d1d1"
     inkscape:document-units="mm"
     showgrid="false"
     inkscape:zoom="10.582793"
     inkscape:cx="26.080071"
     inkscape:cy="8.9768359"
     inkscape:window-width="1366"
     inkscape:window-height="705"
     inkscape:window-x="-8"
     inkscape:window-y="-8"
     inkscape:window-maximized="1"
     inkscape:current-layer="layer1" /><defs
     id="defs2" /><g
     inkscape:label="Capa 1"
     inkscape:groupmode="layer"
     id="layer1"><path
       id="rect198"
       style="fill:#ffffff;stroke:none;stroke-width:0.849172"
       d="m 4.5792502,1.9843532 c -1.4377327,0 -2.5948971,1.1571644 -2.5948971,2.5948971 V 23.420751 c 0,1.437732 1.1571644,2.594897 2.5948971,2.594897 H 14.353698 V 23.005031 17.357609 H 13.14174 11.931458 l 0.03688,-1.979698 0.03688,-1.978022 1.158316,-0.03856 1.15664,-0.03856 0.06873,-1.974669 c 0.07561,-2.1971885 0.26498,-3.0182023 0.901845,-3.8973687 0.919756,-1.269691 2.079235,-1.6343829 5.1965,-1.6343829 H 22.67313 V 7.7625252 9.708698 h -1.106351 c -1.300972,8.01e-4 -2.057485,0.1803935 -2.246229,0.53306 -0.07468,0.139477 -0.135779,0.893087 -0.135779,1.672938 v 1.416465 h 1.72155 c 0.947212,0 1.545416,0.03004 1.580741,0.06538 0.06443,0.06442 -0.02776,3.092804 -0.154219,3.659343 -0.06511,0.291676 -0.119215,0.301731 -1.607562,0.301731 h -1.54051 v 6.371579 2.28646 h 4.235985 c 1.437732,0 2.594897,-1.157165 2.594897,-2.594897 V 4.5792503 c 0,-1.4377327 -1.157165,-2.5948971 -2.594897,-2.5948971 z" /></g><style
     id="style33">.st0{fill:#2ebd59}</style></svg>
