<?xml version="1.0" encoding="UTF-8" standalone="no"?>
<!-- Created with Inkscape (http://www.inkscape.org/) -->

<svg
   width="28"
   height="28"
   viewBox="0 0 28.000001 28.000001"
   version="1.1"
   id="svg5"
   xml:space="preserve"
   inkscape:version="1.2.2 (732a01da63, 2022-12-09)"
   sodipodi:docname="insta2.svg"
   xmlns:inkscape="http://www.inkscape.org/namespaces/inkscape"
   xmlns:sodipodi="http://sodipodi.sourceforge.net/DTD/sodipodi-0.dtd"
   xmlns="http://www.w3.org/2000/svg"
   xmlns:svg="http://www.w3.org/2000/svg"><sodipodi:namedview
     id="namedview7"
     pagecolor="#ffffff"
     bordercolor="#000000"
     borderopacity="0.25"
     inkscape:showpageshadow="2"
     inkscape:pageopacity="0.0"
     inkscape:pagecheckerboard="0"
     inkscape:deskcolor="#d1d1d1"
     inkscape:document-units="mm"
     showgrid="false"
     inkscape:zoom="14.966329"
     inkscape:cx="22.984928"
     inkscape:cy="13.96468"
     inkscape:window-width="1366"
     inkscape:window-height="705"
     inkscape:window-x="-8"
     inkscape:window-y="-8"
     inkscape:window-maximized="1"
     inkscape:current-layer="layer1" /><defs
     id="defs2" /><g
     inkscape:label="Capa 1"
     inkscape:groupmode="layer"
     id="layer1"><path
       id="rect587"
       style="fill:#ffffff;stroke:none;stroke-width:1.01601"
       d="M 4.3515627 1.2792969 C 2.6495727 1.2792969 1.2792969 2.6495727 1.2792969 4.3515627 L 1.2792969 23.648438 C 1.2792969 25.350428 2.6495727 26.720704 4.3515627 26.720704 L 23.648438 26.720704 C 25.350428 26.720704 26.720704 25.350428 26.720704 23.648438 L 26.720704 4.3515627 C 26.720704 2.6495727 25.350428 1.2792969 23.648438 1.2792969 L 4.3515627 1.2792969 z M 13.994141 2.8593751 C 19.092632 2.8593751 20.333113 2.9933271 21.830079 3.7089845 C 22.415596 3.9888959 22.674249 4.1832014 23.273438 4.7890627 C 24.100674 5.6255228 24.433275 6.1863519 24.750001 7.2792971 C 25.07394 8.3971419 25.141461 9.5825307 25.138673 14.048829 C 25.135173 19.603444 25.062875 20.290904 24.320313 21.839845 C 23.429728 23.697547 21.671196 24.808359 19.208985 25.066407 C 18.237109 25.16827 9.5063074 25.161568 7.7578128 24.958985 C 6.0093181 24.756398 4.1031341 23.315587 3.3535157 21.083985 C 2.9685097 19.937836 2.9244211 19.399039 2.8750001 15.023438 C 2.8237639 10.487013 2.8992684 8.6687211 3.1816407 7.5625003 C 3.7534041 5.3225388 5.3178652 3.7578178 7.5488284 3.1953126 C 8.4898768 2.9580429 10.380042 2.8593751 13.994141 2.8593751 z M 13.953125 4.9355471 C 9.2658378 4.9355471 8.6812787 4.9506894 8.1621097 5.0839846 C 6.5016393 5.5103123 5.510556 6.4755314 5.0937502 8.0722659 C 4.8867504 8.8652575 4.7697636 12.223948 4.8300783 15.701172 C 4.8858252 18.91512 4.9440615 19.609529 5.2285158 20.470704 C 5.5982849 21.590183 6.5750504 22.508627 7.7812503 22.875001 C 8.6815892 23.148472 9.6331632 23.189654 14.587891 23.164063 C 18.435693 23.144193 19.260976 23.11875 19.759766 23.003907 C 21.124247 22.689734 22.09832 21.959211 22.613282 20.865235 C 23.069871 19.895293 23.112869 19.449555 23.164063 15.19336 C 23.214348 11.012449 23.128301 8.7457379 22.888673 7.9453128 C 22.422885 6.3894288 21.432106 5.4666004 19.81836 5.0878908 C 19.225174 4.9486874 18.685922 4.9354707 13.953125 4.9355471 z M 19.988282 6.761719 C 20.179705 6.7654116 20.376396 6.8130914 20.566407 6.9140627 C 21.452391 7.3848764 21.487661 8.693213 20.628907 9.2167972 C 20.342101 9.3916691 19.738153 9.4359547 19.435548 9.3125003 C 19.132942 9.189046 18.788105 8.7850094 18.687501 8.4492191 C 18.420189 7.5570133 19.158783 6.7457179 19.988282 6.761719 z M 13.994141 8.3417972 C 16.274146 8.3384672 18.180286 9.5493997 19.177735 11.634766 C 19.919347 13.185265 19.892351 14.957592 19.09961 16.591797 C 18.602705 17.616142 17.589254 18.629517 16.576172 19.119141 C 16.181601 19.309838 15.611659 19.524518 15.308594 19.595704 C 14.728722 19.731901 13.467523 19.756183 12.621094 19.587891 C 11.774666 19.419591 10.85631 18.91456 9.9570316 18.025391 C 9.4221752 17.49654 9.2396909 17.239867 8.9257816 16.583985 C 8.4367369 15.562179 8.3169971 15.052538 8.3222659 14.00586 C 8.3305359 12.36198 8.8192195 11.206175 10.007813 10.017578 C 11.194585 8.830805 12.353001 8.3441527 13.994141 8.3417972 z M 14.125001 10.316407 C 13.552132 10.305271 12.960662 10.413452 12.492188 10.632813 C 11.115486 11.277435 10.292174 12.55744 10.296875 14.044922 C 10.300275 15.125507 10.703251 16.063708 11.464844 16.759766 C 12.43214 17.643815 13.692037 17.970135 14.91211 17.652344 C 15.610967 17.470313 16.040337 17.227356 16.587891 16.705079 C 17.398099 15.93227 17.848114 14.738728 17.728516 13.681641 C 17.558153 12.175832 16.532108 10.919889 15.105469 10.46875 C 14.805621 10.373933 14.468722 10.323088 14.125001 10.316407 z " /></g><style
     id="style33">.st0{fill:#2ebd59}</style></svg>
